<svg xmlns="http://www.w3.org/2000/svg" xmlns:xlink="http://www.w3.org/1999/xlink" width="64" height="64" id="dumbels"><defs><linearGradient id="b" x1="906.952" x2="931.379" y1="515.915" y2="546.094" gradientTransform="translate(-1388.719 211.339) scale(1.53785)" gradientUnits="userSpaceOnUse" xlink:href="#a"></linearGradient><linearGradient id="a"><stop offset="0" stop-color="#ffd800"></stop><stop offset="1" stop-color="#ff6100"></stop></linearGradient></defs><g transform="translate(0 -1004.359)"><rect width="48" height="48" y="1004.359" fill="url(#b)" rx="10.144" ry="10.144"></rect><path fill="#fff" d="M10.469 1019.297c-.01.01-.037 0-.047.01-.291.039-.485.4-.39.679l1 3a.522.522 0 0 0 .65.391.522.522 0 0 0 .287-.704l-1-3a.515.515 0 0 0-.5-.374zm4.031 0c-.022.01-.07 0-.09.011-.24.03-.412.278-.41.52v3a.52.52 0 0 0 .5.507.52.52 0 0 0 .5-.507v-3a.52.52 0 0 0-.5-.531zm3.781 0c-.021.01-.066 0-.086.015-.192.031-.336.201-.383.39l-.78 3a.52.52 0 0 0 .359.61.52.52 0 0 0 .609-.36l.781-3c.102-.306-.177-.672-.5-.655zm11.281 0c-.01.01-.048 0-.058.011-.291.04-.473.398-.379.676l1 3a.522.522 0 0 0 .651.39.522.522 0 0 0 .286-.703l-1-3a.516.516 0 0 0-.5-.375zm4.032 0c-.022.01-.043-.01-.063.01-.24.03-.44.282-.437.524v3a.52.52 0 0 0 .5.507.52.52 0 0 0 .5-.507v-3a.52.52 0 0 0-.5-.53zm3.781 0c-.022.01-.042-.01-.063.01-.192.03-.36.21-.406.4l-.781 3a.52.52 0 0 0 .36.609.52.52 0 0 0 .609-.36l.781-3c.101-.307-.177-.672-.5-.656zM12 1026.358h2v10h-2v-3.438a.493.493 0 0 0 0-.062v-3a.503.503 0 0 0 0-.125zm3 0h2V1032.89a.493.493 0 0 0 0 .062v3.406h-2zm16 0h2v10h-2v-3.438a.493.493 0 0 0 0-.062v-3a.503.503 0 0 0 0-.125zm3 0h2V1032.89a.493.493 0 0 0 0 .062v3.406h-2zm-24 4h1v2h-1zm8 0h12v2H18zm19 0h1v2h-1z" color="#000" font-family="Sans" font-weight="400" overflow="visible" style="line-height:normal;-inkscape-font-specification:Sans;text-indent:0;text-align:start;text-decoration-line:none;text-transform:none;block-progression:tb;marker:none"></path></g></svg>